<svg width="242" height="32" viewBox="0 0 242 32" fill="none" xmlns="http://www.w3.org/2000/svg">
<path d="M5.21209 21.7913V18.6369H8.05822C10.0575 18.6369 12.1703 18.0781 12.1964 16.1799C12.1964 15.0114 11.2972 13.4642 8.14116 13.4642C6.39506 13.4642 4.02911 14.1061 4.02911 15.9767H0.309931C0.309931 11.566 4.53547 9.97256 8.16735 9.97256C11.8866 9.97256 15.8851 11.843 15.9156 16.1937C15.9022 17.0762 15.6329 17.9331 15.1442 18.6484C14.6554 19.3638 13.9708 19.903 13.183 20.1933C15.0688 20.8353 16.3958 22.7658 16.3958 24.4885C16.3958 29.4857 11.8603 30.9544 8.05822 30.9544C4.2561 30.9544 0.0261914 29.3564 0 24.7102H3.74537C3.74537 26.8162 6.478 27.546 8.08441 27.546C9.97017 27.546 12.4802 26.7285 12.4802 24.5347C12.4802 23.3108 11.8298 21.7913 8.28085 21.7913H5.21209Z" fill="#000C1F"/>
<path d="M22.6227 16.531V19.5977C23.4958 18.2121 25.6347 17.4362 27.1844 17.4362C31.1567 17.4362 35.3255 19.1589 35.3255 24.2438C35.3255 28.7746 31.1305 31.0238 27.1582 31.0238C23.1858 31.0238 18.9297 28.7746 18.9297 24.1885V16.5587C18.9297 12.0003 22.9894 9.87109 27.0447 9.87109C31.327 9.87109 35.1291 11.6215 35.1291 15.9168H31.4318C31.4318 14.1063 29.2491 13.201 27.1232 13.201C24.897 13.1733 22.6446 14.4296 22.6446 16.6464L22.6227 16.531ZM31.6369 24.2438C31.6369 21.9947 29.6639 20.7985 27.1844 20.7985C24.7049 20.7985 22.5921 21.9669 22.6227 24.2438C22.6533 26.5208 24.7355 27.583 27.1582 27.583C29.4935 27.583 31.6369 26.4931 31.6369 24.2438Z" fill="#000C1F"/>
<path d="M52.476 13.9028H41.8293V17.4959H45.6575C49.8569 17.4959 53.6022 19.2787 53.5761 24.0681C53.5761 28.7143 49.8263 30.9358 45.854 30.9358C41.5193 30.9358 37.8001 29.3286 37.7695 24.5346H41.467C41.467 26.7884 43.9463 27.3703 45.806 27.3703C47.6655 27.3703 49.8875 26.4928 49.8875 24.0681C49.918 21.7588 47.7048 21.0891 45.6619 21.0891H38.193V10.2773H52.476V13.9028Z" fill="#000C1F"/>
<path d="M79.9948 0.334106C79.2635 0.336242 78.5537 0.595267 77.9767 1.07051C77.3997 1.54575 76.9882 2.21029 76.8069 2.95977C76.6256 3.70926 76.6846 4.50125 76.9748 5.21137C77.265 5.92149 77.7699 6.50953 78.4102 6.88314L71.7183 24.2348C71.2628 24.0666 70.7778 24.0068 70.298 24.0595C69.8181 24.1122 69.3552 24.2761 68.942 24.5397L61.8267 15.9262C62.3358 15.2475 62.5863 14.3918 62.529 13.5274C62.4718 12.6631 62.1108 11.8528 61.5172 11.2559C60.9236 10.659 60.1404 10.3188 59.3216 10.3022C58.5028 10.2856 57.7078 10.5938 57.093 11.1662C56.4782 11.7386 56.0882 12.5337 55.9997 13.395C55.9111 14.2565 56.1305 15.1216 56.6147 15.8204C57.0988 16.5193 57.8126 17.0011 58.6156 17.1712C59.4186 17.3411 60.2526 17.187 60.9536 16.739L68.0646 25.3526C67.5983 25.9721 67.3444 26.7406 67.3443 27.5324C67.3282 28.0014 67.4016 28.4689 67.56 28.9071C67.7185 29.3454 67.9589 29.7453 68.2667 30.0831C68.5745 30.4208 68.9436 30.6894 69.3516 30.873C69.7598 31.0565 70.1988 31.1511 70.6423 31.1511C71.0857 31.1511 71.5247 31.0565 71.9329 30.873C72.341 30.6894 72.71 30.4208 73.0178 30.0831C73.3257 29.7453 73.566 29.3454 73.7245 28.9071C73.8829 28.4689 73.9563 28.0014 73.9402 27.5324C73.9414 27.0198 73.835 26.5133 73.629 26.0493C73.4229 25.5853 73.1222 25.1755 72.7485 24.8492L79.5233 7.29881C79.6807 7.32506 79.8398 7.33742 79.9991 7.33575C80.4423 7.35282 80.8842 7.2752 81.2984 7.10753C81.7126 6.93986 82.0906 6.68558 82.4099 6.3599C82.7291 6.0342 82.983 5.64377 83.1564 5.21192C83.3299 4.78008 83.4193 4.31569 83.4193 3.84648C83.4193 3.37727 83.3299 2.91288 83.1564 2.48103C82.983 2.04919 82.7291 1.65876 82.4099 1.33306C82.0906 1.00737 81.7126 0.753095 81.2984 0.585426C80.8842 0.417758 80.4423 0.340137 79.9991 0.357199L79.9948 0.334106Z" fill="#000C1F"/>
<path d="M79.9948 0.334106C79.2635 0.336242 78.5537 0.595267 77.9767 1.07051C77.3997 1.54575 76.9882 2.21029 76.8069 2.95977C76.6256 3.70926 76.6846 4.50125 76.9748 5.21137C77.265 5.92149 77.7699 6.50953 78.4102 6.88314L71.7183 24.2348C71.2628 24.0666 70.7778 24.0068 70.298 24.0595C69.8181 24.1122 69.3552 24.2761 68.942 24.5397L61.8267 15.9262C62.3358 15.2475 62.5863 14.3918 62.529 13.5274C62.4718 12.6631 62.1108 11.8528 61.5172 11.2559C60.9236 10.659 60.1404 10.3188 59.3216 10.3022C58.5028 10.2856 57.7078 10.5938 57.093 11.1662C56.4782 11.7386 56.0882 12.5337 55.9997 13.395C55.9111 14.2565 56.1305 15.1216 56.6147 15.8204C57.0988 16.5193 57.8126 17.0011 58.6156 17.1712C59.4186 17.3411 60.2526 17.187 60.9536 16.739L68.0646 25.3526C67.5983 25.9721 67.3444 26.7406 67.3443 27.5324C67.3282 28.0014 67.4016 28.4689 67.56 28.9071C67.7185 29.3454 67.9589 29.7453 68.2667 30.0831C68.5745 30.4208 68.9436 30.6894 69.3516 30.873C69.7598 31.0565 70.1988 31.1511 70.6423 31.1511C71.0857 31.1511 71.5247 31.0565 71.9329 30.873C72.341 30.6894 72.71 30.4208 73.0178 30.0831C73.3257 29.7453 73.566 29.3454 73.7245 28.9071C73.8829 28.4689 73.9563 28.0014 73.9402 27.5324C73.9414 27.0198 73.835 26.5133 73.629 26.0493C73.4229 25.5853 73.1222 25.1755 72.7485 24.8492L79.5233 7.29881C79.6807 7.32506 79.8398 7.33742 79.9991 7.33575C80.4423 7.35282 80.8842 7.2752 81.2984 7.10753C81.7126 6.93986 82.0906 6.68558 82.4099 6.3599C82.7291 6.0342 82.983 5.64377 83.1564 5.21192C83.3299 4.78008 83.4193 4.31569 83.4193 3.84648C83.4193 3.37727 83.3299 2.91288 83.1564 2.48103C82.983 2.04919 82.7291 1.65876 82.4099 1.33306C82.0906 1.00737 81.7126 0.753095 81.2984 0.585426C80.8842 0.417758 80.4423 0.340137 79.9991 0.357199L79.9948 0.334106Z" fill="#000C1F"/>
<path d="M91.7005 31.0379H83.8125V10.2546H91.7005C93.0463 10.214 94.3861 10.4597 95.6405 10.9769C96.8949 11.4941 98.0387 12.2725 99.004 13.2659C99.9536 14.2124 100.705 15.359 101.212 16.6317C101.718 17.9044 101.967 19.275 101.941 20.6554C101.966 22.0358 101.717 23.4063 101.211 24.6788C100.705 25.9515 99.9526 27.098 99.004 28.0451C98.0367 29.0351 96.8929 29.81 95.6385 30.3241C94.3841 30.8381 93.045 31.0808 91.7005 31.0379ZM91.7005 13.6446H87.2784V27.6524H91.7005C92.5746 27.6706 93.4433 27.5022 94.2546 27.1572C95.066 26.8123 95.8033 26.298 96.4226 25.6449C97.0418 24.9919 97.5305 24.2134 97.8592 23.3562C98.1876 22.499 98.3503 21.5804 98.3356 20.6554C98.3474 19.7302 98.1837 18.8117 97.8545 17.9543C97.5252 17.097 97.0368 16.3182 96.4184 15.6638C95.7999 15.0095 95.0637 14.4928 94.2535 14.1444C93.4431 13.796 92.575 13.6229 91.7005 13.6353V13.6446Z" fill="#000C1F"/>
<path d="M103.861 24.1095C103.81 22.1898 104.467 20.3246 105.694 18.9091C106.77 17.6701 108.256 16.9151 109.842 16.8C111.429 16.6848 112.997 17.2182 114.224 18.2902V17.1817H117.337V31.0373H114.224V29.9288C112.999 30.9979 111.435 31.5328 109.85 31.4247C108.266 31.3166 106.779 30.5736 105.694 29.3469C104.463 27.9195 103.806 26.041 103.861 24.1095ZM113.146 21.2783C112.828 20.9105 112.441 20.6168 112.01 20.4157C111.579 20.2148 111.114 20.111 110.642 20.111C110.171 20.111 109.705 20.2148 109.274 20.4157C108.843 20.6168 108.457 20.9105 108.138 21.2783C107.484 22.0647 107.121 23.0771 107.121 24.1257C107.121 25.1742 107.484 26.1867 108.138 26.973C108.461 27.3334 108.849 27.6206 109.279 27.8169C109.709 28.0131 110.174 28.1144 110.642 28.1144C111.111 28.1144 111.575 28.0131 112.005 27.8169C112.436 27.6206 112.824 27.3334 113.146 26.973C113.801 26.1867 114.163 25.1742 114.163 24.1257C114.163 23.0771 113.801 22.0647 113.146 21.2783Z" fill="#000C1F"/>
<path d="M119.051 20.0772V17.1813H120.915V14.4749H124.058V17.1813H127.433V20.0772H124.058V26.1967C124.051 26.4226 124.088 26.6475 124.168 26.8568C124.25 27.0662 124.37 27.2552 124.525 27.4114C124.676 27.5647 124.853 27.6846 125.048 27.7639C125.243 27.8432 125.451 27.8804 125.66 27.8732H127.433V31.0415H125.398C124.217 31.0661 123.073 30.6154 122.194 29.7807C121.782 29.3878 121.454 28.9057 121.233 28.3669C121.013 27.8283 120.904 27.2456 120.915 26.6586V20.0772H119.051Z" fill="#000C1F"/>
<path d="M129.041 24.1099C128.988 22.1896 129.645 20.3234 130.874 18.9094C131.95 17.6707 133.434 16.916 135.02 16.8008C136.606 16.6856 138.174 17.2189 139.4 18.2905V17.182H142.512V31.0376H139.4V29.9291C138.176 30.9989 136.612 31.5345 135.028 31.4263C133.444 31.3182 131.958 30.5746 130.874 29.3472C129.641 27.921 128.984 26.0418 129.041 24.1099ZM138.321 21.2787C138.005 20.9104 137.618 20.6161 137.187 20.4147C136.757 20.2134 136.291 20.1094 135.82 20.1094C135.349 20.1094 134.883 20.2134 134.453 20.4147C134.022 20.6161 133.636 20.9104 133.319 21.2787C132.661 22.0637 132.297 23.0767 132.297 24.126C132.297 25.1754 132.661 26.1884 133.319 26.9734C133.641 27.3337 134.028 27.6208 134.458 27.8169C134.888 28.0131 135.352 28.1143 135.82 28.1143C136.289 28.1143 136.752 28.0131 137.182 27.8169C137.613 27.6208 138 27.3337 138.321 26.9734C138.98 26.1884 139.343 25.1754 139.343 24.126C139.343 23.0767 138.98 22.0637 138.321 21.2787Z" fill="#000C1F"/>
<path d="M159.214 14.5034L155.78 15.5749C155.579 14.8996 155.142 14.3311 154.557 13.9861C153.891 13.562 153.125 13.3474 152.349 13.3673C151.527 13.3389 150.719 13.5809 150.035 14.06C149.749 14.2392 149.513 14.493 149.346 14.7971C149.18 15.1012 149.091 15.4455 149.087 15.7965C148.991 16.4755 149.454 17.1036 150.485 17.6764C150.826 17.8493 151.176 18.0035 151.532 18.1382C152.152 18.3645 153.046 18.6416 154.208 18.9695C155.23 19.2602 156.224 19.6514 157.176 20.138C158.884 21.0617 159.807 22.6628 159.944 24.9412C159.973 25.8447 159.804 26.743 159.451 27.5659C159.097 28.3888 158.568 29.1139 157.905 29.6844C156.564 30.8545 154.828 31.4395 152.698 31.4395C150.951 31.4975 149.227 31.004 147.748 30.0216C146.479 29.2026 145.539 27.9213 145.102 26.4191L148.533 25.3431C148.63 25.7357 148.803 26.1028 149.041 26.4209C149.279 26.7389 149.577 27.001 149.916 27.1904C150.761 27.7055 151.723 27.9614 152.698 27.9294C153.65 27.9683 154.593 27.7063 155.404 27.1765C155.731 26.986 156.003 26.7074 156.195 26.3691C156.386 26.0309 156.49 25.645 156.495 25.2507C156.485 24.8502 156.368 24.4611 156.156 24.1284C155.945 23.7958 155.649 23.5331 155.303 23.371C154.609 22.9897 153.877 22.6908 153.121 22.4796C151.453 22.0378 149.828 21.4269 148.271 20.6552C146.508 19.5869 145.626 18.0473 145.626 16.0368C145.597 15.1923 145.75 14.3519 146.073 13.5786C146.394 12.8053 146.877 12.1189 147.485 11.5706C148.83 10.3901 150.541 9.77668 152.287 9.84796C153.873 9.79853 155.438 10.2608 156.77 11.1734C157.939 11.9343 158.807 13.1172 159.214 14.5034Z" fill="#000C1F"/>
<path d="M175.128 21.3385L171.959 22.3545C171.687 21.6839 171.231 21.1157 170.649 20.7242C169.932 20.2419 169.08 20.0339 168.237 20.1347C167.392 20.2356 166.606 20.6392 166.009 21.2784C165.664 21.6523 165.394 22.0955 165.214 22.5818C165.034 23.068 164.948 23.5876 164.962 24.1096C164.949 24.6363 165.035 25.1604 165.215 25.6517C165.395 26.1432 165.665 26.5922 166.009 26.9731C166.348 27.3432 166.756 27.6356 167.206 27.8318C167.657 28.0281 168.141 28.1241 168.628 28.1138C169.355 28.1326 170.07 27.9185 170.68 27.4995C171.263 27.1076 171.72 26.5374 171.989 25.8646L175.158 26.8529C174.67 28.2203 173.791 29.3925 172.644 30.206C171.469 31.0342 170.083 31.4643 168.672 31.4391C167.756 31.4626 166.845 31.289 165.994 30.9289C165.144 30.5689 164.372 30.0298 163.724 29.3445C163.076 28.6591 162.566 27.8418 162.226 26.942C161.886 26.0421 161.722 25.0784 161.744 24.1096C161.723 23.141 161.887 22.178 162.227 21.2786C162.568 20.3793 163.078 19.5625 163.726 18.8776C164.374 18.1928 165.146 17.6543 165.995 17.2945C166.846 16.9347 167.756 16.7612 168.672 16.7847C170.077 16.7639 171.455 17.192 172.626 18.0131C173.766 18.821 174.639 19.9829 175.128 21.3385Z" fill="#000C1F"/>
<path d="M176.735 12.8035C176.727 12.522 176.772 12.2415 176.87 11.9794C176.968 11.7173 177.115 11.479 177.303 11.2794C177.486 11.0824 177.706 10.9275 177.949 10.8243C178.191 10.721 178.451 10.6715 178.712 10.679C178.977 10.6725 179.238 10.7223 179.484 10.8255C179.729 10.9287 179.953 11.0831 180.14 11.2794C180.332 11.4766 180.483 11.714 180.584 11.9764C180.685 12.2387 180.733 12.5204 180.725 12.8035C180.732 13.0813 180.684 13.3575 180.584 13.6144C180.484 13.8714 180.334 14.1033 180.144 14.2953C179.957 14.4917 179.733 14.6461 179.488 14.7493C179.243 14.8524 178.981 14.9022 178.717 14.8957C178.455 14.902 178.196 14.8522 177.953 14.7494C177.71 14.6465 177.489 14.4927 177.304 14.2972C177.119 14.1018 176.973 13.8687 176.875 13.6119C176.778 13.3552 176.73 13.0802 176.735 12.8035ZM180.288 31.0374H177.145V17.1818H180.288V31.0374Z" fill="#000C1F"/>
<path d="M196.226 25.3426H185.836C186.054 26.2222 186.546 26.9984 187.233 27.5456C187.935 28.1095 188.796 28.4072 189.677 28.3907C190.26 28.41 190.839 28.2865 191.369 28.0302C191.899 27.7739 192.366 27.3915 192.733 26.9128L195.789 27.8689C195.196 28.9701 194.325 29.8752 193.275 30.483C192.174 31.1266 190.935 31.4561 189.677 31.439C188.744 31.4619 187.816 31.2888 186.947 30.9297C186.078 30.5705 185.285 30.0326 184.614 29.3468C183.945 28.6746 183.418 27.8606 183.068 26.958C182.717 26.0554 182.551 25.0847 182.579 24.1094C182.557 23.1457 182.72 22.1872 183.06 21.2928C183.401 20.3985 183.91 19.5872 184.557 18.909C185.191 18.2108 185.956 17.6609 186.804 17.295C187.652 16.929 188.562 16.7551 189.476 16.7845C190.382 16.7607 191.282 16.9375 192.119 17.3034C192.954 17.6693 193.71 18.2162 194.335 18.909C194.983 19.5872 195.492 20.3985 195.832 21.2928C196.172 22.1872 196.335 23.1457 196.313 24.1094C196.316 24.5223 196.286 24.9348 196.226 25.3426ZM185.866 22.7561H193.083C192.847 21.9215 192.368 21.1865 191.716 20.6548C191.059 20.1146 190.248 19.8279 189.416 19.8419C188.607 19.8319 187.82 20.1192 187.189 20.6548C186.548 21.188 186.085 21.9244 185.866 22.7561Z" fill="#000C1F"/>
<path d="M198.404 31.0374V17.1819H201.547V18.8769C201.986 18.2103 202.575 17.67 203.261 17.3048C203.947 16.9396 204.709 16.7608 205.476 16.7848C206.16 16.7639 206.841 16.8917 207.477 17.1602C208.113 17.4286 208.69 17.8322 209.173 18.3457C209.661 18.841 210.047 19.4395 210.302 20.1024C210.558 20.7651 210.679 21.4775 210.657 22.193V31.0605H207.514V23.1259C207.524 22.7082 207.456 22.2926 207.31 21.9039C207.165 21.5151 206.949 21.1611 206.672 20.8629C206.397 20.5621 206.066 20.3248 205.7 20.1658C205.335 20.0069 204.942 19.9297 204.546 19.9392C204.152 19.9367 203.761 20.0171 203.395 20.1757C203.031 20.3343 202.7 20.5679 202.42 20.863C202.141 21.1581 201.921 21.5089 201.771 21.895C201.621 22.281 201.545 22.6947 201.547 23.1121V31.0374H198.404Z" fill="#000C1F"/>
<path d="M226.376 21.3385L223.202 22.3545C222.932 21.683 222.476 21.1143 221.893 20.7242C221.176 20.2419 220.325 20.0339 219.48 20.1347C218.636 20.2356 217.85 20.6392 217.252 21.2784C216.908 21.6523 216.638 22.0955 216.457 22.5818C216.278 23.068 216.192 23.5876 216.205 24.1096C216.193 24.6363 216.279 25.1604 216.458 25.6517C216.639 26.1432 216.908 26.5922 217.252 26.9731C217.591 27.3432 217.999 27.6356 218.45 27.8318C218.901 28.0281 219.385 28.1241 219.872 28.1138C220.588 28.1269 221.292 27.913 221.893 27.4995C222.477 27.1088 222.934 26.5383 223.202 25.8646L226.376 26.8529C225.887 28.2207 225.006 29.393 223.857 30.206C222.682 31.0348 221.297 31.4648 219.885 31.4391C218.969 31.4626 218.058 31.289 217.207 30.9289C216.358 30.5689 215.584 30.0298 214.937 29.3445C214.289 28.6591 213.779 27.8418 213.439 26.942C213.099 26.0421 212.935 25.0784 212.957 24.1096C212.935 23.141 213.1 22.178 213.441 21.2786C213.781 20.3793 214.291 19.5625 214.939 18.8776C215.586 18.1928 216.359 17.6543 217.209 17.2945C218.059 16.9347 218.969 16.7612 219.885 16.7847C221.291 16.763 222.672 17.1911 223.844 18.0131C224.993 18.8175 225.877 19.9794 226.376 21.3385Z" fill="#000C1F"/>
<path d="M241.534 25.3432H231.144C231.361 26.2237 231.854 27.0003 232.542 27.5462C233.244 28.1102 234.105 28.4078 234.986 28.3914C235.569 28.4102 236.147 28.2867 236.677 28.0303C237.208 27.774 237.674 27.3918 238.042 26.9134L241.097 27.8695C240.503 28.9711 239.631 29.8761 238.579 30.4836C237.48 31.1268 236.242 31.4563 234.986 31.4396C234.053 31.4633 233.125 31.2906 232.256 30.9313C231.386 30.5722 230.594 30.0338 229.922 29.3474C229.253 28.6757 228.726 27.8618 228.374 26.9593C228.023 26.0567 227.856 25.0857 227.884 24.1101C227.86 23.1459 228.024 22.1869 228.365 21.2924C228.706 20.398 229.217 19.587 229.866 18.9096C231.167 17.5481 232.923 16.7846 234.753 16.7846C236.582 16.7846 238.339 17.5481 239.64 18.9096C240.289 19.587 240.799 20.398 241.14 21.2924C241.48 22.1869 241.645 23.1459 241.622 24.1101C241.623 24.5229 241.593 24.9351 241.534 25.3432ZM231.176 22.7568H238.391C238.156 21.9227 237.68 21.1877 237.029 20.6554C236.374 20.1152 235.563 19.8284 234.733 19.8425C233.925 19.8325 233.138 20.1199 232.507 20.6554C231.861 21.1859 231.393 21.9229 231.176 22.7568Z" fill="#000C1F"/>
</svg>
